Coordinates
version=1
nRows=11
nColumns=40
inDegrees=yes

Units are S.I. units (second, meters, Newtons, ...)
Angles are in degrees.

endheader
time	pelvis_tilt	pelvis_list	pelvis_rotation	pelvis_tx	pelvis_ty	pelvis_tz	hip_flexion_r	hip_adduction_r	hip_rotation_r	knee_angle_r	knee_angle_r_beta	ankle_angle_r	subtalar_angle_r	mtp_angle_r	hip_flexion_l	hip_adduction_l	hip_rotation_l	knee_angle_l	knee_angle_l_beta	ankle_angle_l	subtalar_angle_l	mtp_angle_l	lumbar_extension	lumbar_bending	lumbar_rotation	arm_flex_r	arm_add_r	arm_rot_r	elbow_flex_r	pro_sup_r	wrist_flex_r	wrist_dev_r	arm_flex_l	arm_add_l	arm_rot_l	elbow_flex_l	pro_sup_l	wrist_flex_l	wrist_dev_l
      9.04750000	     -2.80379945	     -5.04967727	      1.61787460	      0.97348978	      0.92106039	      0.47432817	     22.13462023	      0.98997899	    -13.43594156	     20.62557397	     20.62557397	      4.11323465	     -2.29157050	     -3.51041759	      4.12612570	    -11.42248584	     -6.06612518	     38.60374347	     38.60374347	     13.03544063	    -12.46628729	     -9.98002707	    -12.58699858	      4.41542656	      2.72702936	    -15.67625215	    -12.17475445	     -4.97119401	     29.89140759	     46.05694588	      0.00000000	      0.00000000	     11.87174504	    -15.44603550	     -9.36715084	     98.82864652	     47.80049917	      0.00000000	      0.00000000
      9.05914286	     -2.91162305	     -5.22384701	      1.80300591	      0.97337630	      0.92229601	      0.47704543	     21.37788927	      1.36199729	    -13.80780021	     20.08314312	     20.08314312	      4.59602582	     -1.80515852	     -3.73439585	      6.25477350	    -11.97848694	     -4.98545366	     42.57820789	     42.57820789	     10.73876601	    -14.19808461	     -9.89096152	    -12.55722498	      4.56151812	      2.95204730	    -14.55283093	    -12.10342719	     -4.69008711	     30.46921001	     46.02215732	      0.00000000	      0.00000000	     10.74426579	    -14.98405392	     -9.07019681	     98.57012572	     47.77841175	      0.00000000	      0.00000000
      9.07078571	     -3.01649155	     -5.31906400	      1.99322267	      0.97318602	      0.92332093	      0.47956989	     20.63669447	      1.63600224	    -14.17036634	     19.57848489	     19.57848489	      5.09728689	     -1.24155784	     -4.04116679	      8.46730676	    -12.32735374	     -3.80299251	     46.49781161	     46.49781161	      8.49614079	    -15.78750863	     -9.38053909	    -12.52716623	      4.64552649	      3.10789619	    -13.33497340	    -12.12336608	     -4.34338978	     31.17232050	     45.97880788	      0.00000000	      0.00000000	      9.50835165	    -14.60983295	     -8.80545531	     98.13312357	     47.75580569	      0.00000000	      0.00000000
      9.08242857	     -3.10366136	     -5.43022136	      2.17081368	      0.97281340	      0.92414785	      0.48194599	     19.93706662	      1.90446792	    -14.58226109	     19.15380243	     19.15380243	      5.51355935	     -0.64295269	     -4.38841771	     10.75892821	    -12.62024800	     -2.63648801	     50.36617587	     50.36617587	      6.58622680	    -16.93254187	     -8.30054863	    -12.50770867	      4.74167956	      3.20610822	    -12.00135182	    -12.22831102	     -3.91617878	     31.98342340	     45.92720375	      0.00000000	      0.00000000	      8.25876368	    -14.25430909	     -8.54311954	     97.46558922	     47.73020981	      0.00000000	      0.00000000
      9.09407143	     -3.13423158	     -5.51952041	      2.30039501	      0.97229070	      0.92483263	      0.48414798	     19.22514825	      2.13561853	    -14.98265853	     18.78807069	     18.78807069	      5.69536589	     -0.05029292	     -5.51002955	     13.24971761	    -12.73617660	     -1.38910113	     54.59071747	     54.59071747	      7.55120534	    -16.42672728	     -0.85563606	    -12.58233049	      4.83030175	      3.07830931	    -10.72869864	    -13.08808897	      0.14268405	     34.00132880	     45.60469598	      0.00000000	      0.00000000	      6.81461098	    -13.89348645	     -8.70705670	     96.67605618	     47.81659984	      0.00000000	      0.00000000
      9.10571429	     -3.18406985	     -5.57410441	      2.47428680	      0.97161568	      0.92530792	      0.48613838	     18.62700350	      2.27283466	    -15.47118233	     18.60357715	     18.60357715	      6.16728341	      0.68170710	     -5.79253716	     15.56975209	    -12.78990750	     -0.29428840	     58.00819287	     58.00819287	      6.73092558	    -16.73638581	      1.39439615	    -12.58422526	      4.88258806	      3.23632021	     -9.18616798	    -13.46560081	      1.25309184	     34.83161427	     45.53018789	      0.00000000	      0.00000000	      5.87402193	    -13.35958881	     -8.36473534	     95.04452794	     47.81422270	      0.00000000	      0.00000000
      9.11735714	     -3.20815621	     -5.79815099	      2.63049711	      0.97087655	      0.92564864	      0.48821396	     18.00831992	      2.67070699	    -15.68411966	     18.37073133	     18.37073133	      6.57185899	      0.89281786	     -5.90091179	     17.79900166	    -13.05606612	      0.66456227	     60.94419342	     60.94419342	      5.68926515	    -16.96516186	      1.74911724	    -12.66865318	      5.11579312	      3.46330161	     -7.52755587	    -13.66224720	      1.25163399	     35.51158441	     45.51770758	      0.00000000	      0.00000000	      4.69963556	    -12.98104108	     -7.88170251	     93.91597140	     47.76272438	      0.00000000	      0.00000000
      9.12900000	     -3.20019095	     -6.00567349	      2.78482593	      0.97004235	      0.92595411	      0.49019537	     17.40339747	      3.03056599	    -15.90532711	     18.20753992	     18.20753992	      6.94271854	      1.18699450	     -6.01211399	     19.94890802	    -13.25447850	      1.55056992	     63.45309586	     63.45309586	      5.11079936	    -17.01079451	      2.19119706	    -12.74949832	      5.28482353	      3.62670556	     -5.73294020	    -13.89055117	      1.23866329	     36.23984039	     45.50484153	      0.00000000	      0.00000000	      3.57823502	    -12.59313870	     -7.40379419	     92.37253184	     47.70130046	      0.00000000	      0.00000000
      9.14064286	     -3.21524331	     -6.08608906	      2.92022623	      0.96901927	      0.92639178	      0.49192350	     16.81532617	      3.20037855	    -16.35609187	     18.04724987	     18.04724987	      7.38902086	      1.82984802	     -6.07900620	     22.15279289	    -13.26828425	      2.25711362	     65.63714000	     65.63714000	      5.64423309	    -16.61721694	      4.97211601	    -12.87237558	      5.42086653	      4.11289735	     -3.96757213	    -14.15933408	      1.73619885	     36.91629663	     45.47330822	      0.00000000	      0.00000000	      3.25593551	    -12.11699656	     -6.93385365	     88.67714901	     47.63023861	      0.00000000	      0.00000000
      9.15228571	     -3.22207635	     -6.29801319	      3.13102999	      0.96813726	      0.92659408	      0.49354929	     16.17412426	      3.55799602	    -16.58747344	     17.78208957	     17.78208957	      7.85693106	      2.14010261	     -5.99992210	     24.27213147	    -13.40053361	      2.98830821	     67.29936447	     67.29936447	      6.15943226	    -16.26529807	      6.14720609	    -12.82608455	      5.69042908	      4.32574304	     -2.19119033	    -14.50909713	      1.84165681	     37.79982724	     45.45786866	      0.00000000	      0.00000000	      2.42981218	    -11.74181758	     -6.15622198	     86.12837180	     47.56430356	      0.00000000	      0.00000000
      9.16392857	     -3.21897378	     -6.49817536	      3.33074298	      0.96714032	      0.92690799	      0.49512045	     15.50003982	      3.91671139	    -16.83655994	     17.44117298	     17.44117298	      8.20178057	      2.42678495	     -6.00078236	     26.26763393	    -13.55994217	      3.49999922	     68.32687944	     68.32687944	      6.29995391	    -16.18241696	      6.10835913	    -12.91283146	      5.89827494	      4.27967498	     -0.09132468	    -14.67158757	      1.71250068	     38.71873265	     45.44756544	      0.00000000	      0.00000000	      1.28889321	    -11.55297320	     -5.67319989	     83.93814411	     47.49481168	      0.00000000	      0.00000000
